<?xml version="1.0" standalone="no"?><svg xmlns="http://www.w3.org/2000/svg" viewBox="0 0 1440 320"><path fill="#e3f2fd" fill-opacity="1" d="M0,64L40,80C80,96,160,128,240,149.3C320,171,400,181,480,170.7C560,160,640,128,720,106.7C800,85,880,75,960,85.3C1040,96,1120,128,1200,133.3C1280,139,1360,117,1400,106.7L1440,96L1440,320L1400,320C1360,320,1280,320,1200,320C1120,320,1040,320,960,320C880,320,800,320,720,320C640,320,560,320,480,320C400,320,320,320,240,320C160,320,80,320,40,320L0,320Z"></path></svg>